<svg width="478" height="512.29" xmlns="http://www.w3.org/2000/svg" clip-rule="evenodd" fill-rule="evenodd" image-rendering="optimizeQuality" text-rendering="geometricPrecision" shape-rendering="geometricPrecision">

 <g>
  <title>Layer 1</title>
  <path id="svg_1" d="m161.37,396.74l-31.77,0l0,-390.16c0,-3.33 -3.25,-6.58 -6.58,-6.58l-70.08,0c-3.41,0 -6.63,2.93 -6.63,6.58l0,390.16l-31.73,0c-3.37,0 -6.82,1.15 -9.56,3.57c-6.1,5.28 -6.7,14.52 -1.46,20.59l75.28,86.42c5.99,6.63 16.46,6.71 22.25,-0.27l71.07,-85.87c2.38,-2.62 3.81,-6.11 3.81,-9.84c0,-8.13 -6.51,-14.6 -14.6,-14.6zm50.02,-396.74c-3.33,0 -6.59,3.25 -6.59,6.58l0,56.6c0,3.37 2.94,6.63 6.59,6.63l260.03,0c3.65,0 6.58,-3.26 6.58,-6.63l0,-56.6c0,-3.33 -3.25,-6.58 -6.58,-6.58l-260.03,0zm0,142.11c-3.17,0 -6.59,3.37 -6.59,6.59l0,56.59c0,3.26 2.98,6.63 6.59,6.63l192.84,0c3.61,0 6.58,-3.26 6.58,-6.63l0,-56.59c0,-3.34 -3.33,-6.59 -6.58,-6.59l-192.84,0zm0,142.11c-3.17,0 -6.59,3.33 -6.59,6.59l0,56.59c0,3.3 2.94,6.63 6.59,6.63l125.65,0c3.65,0 6.58,-3.25 6.58,-6.63l0,-56.59c0,-3.34 -3.33,-6.59 -6.58,-6.59l-125.65,0z" fill-rule="nonzero"/>
  <g stroke="null">
   <g stroke="null">
    <path fill="#ff0000" d="m348.48894,306.44164c58.23378,0 105.44135,47.20586 105.44135,105.43792c0,58.23378 -47.20758,105.43964 -105.44135,105.43964c-58.23206,0.00172 -105.43964,-47.20586 -105.43964,-105.43964c0,-58.23206 47.20758,-105.43792 105.43964,-105.43792l0,0zm34.8016,62.16888c2.3391,-2.3391 6.13005,-2.3391 8.47087,0c2.3391,2.3391 2.3391,6.13177 0,8.47087l-34.80332,34.79817l34.8016,34.79989c2.3391,2.3391 2.3391,6.13177 0,8.47258c-2.3391,2.33738 -6.13005,2.33738 -8.47087,0l-34.79989,-34.79989l-34.79989,34.79989c-2.33738,2.33738 -6.13177,2.33738 -8.47087,0c-2.3391,-2.3391 -2.3391,-6.13177 0,-8.47258l34.79989,-34.79989l-34.79989,-34.79817c-2.3391,-2.3391 -2.3391,-6.13177 0,-8.47087c2.3391,-2.3391 6.13177,-2.3391 8.47087,0l34.79989,34.79989l34.8016,-34.79989l0,0z" clip-rule="evenodd" fill-rule="evenodd"/>
   </g>
  </g>
 </g>
</svg>