<svg width="150" height="122.88" xmlns="http://www.w3.org/2000/svg" data-name="Layer 1">
 <title>dollar</title>

 <g>
  <title>Layer 1</title>
  <path id="svg_1" d="m23.71,111.63a32.57,32.57 0 0 1 -3.49,-0.43l-6.12,-0.88l-3.78,-0.63c-1.22,-0.22 -2.45,-0.46 -3.66,-0.73s-2.47,-0.58 -3.53,-0.86l-1.44,-0.39l0,-23.65l6.69,0.55l4.91,0.29l5.15,0.23l5.22,0.16l5.07,0.1l4.72,0c1.43,0 2.68,0 3.76,-0.14a22.78,22.78 0 0 0 3,-0.45a9.46,9.46 0 0 0 2.09,-0.71a4.65,4.65 0 0 0 1.26,-0.86a2.7,2.7 0 0 0 0.63,-1a4.47,4.47 0 0 0 0.24,-1.55l0,-1.53a3.09,3.09 0 0 0 -1.2,-2.72a5.5,5.5 0 0 0 -1.63,-0.8a7,7 0 0 0 -2,-0.27l-6.9,0a49.84,49.84 0 0 1 -13.82,-1.75a27.5,27.5 0 0 1 -10.38,-5.36a22,22 0 0 1 -6.43,-9.72a42.4,42.4 0 0 1 -2.07,-14.02l0,-4.29a35.58,35.58 0 0 1 2.29,-13.22a23.85,23.85 0 0 1 7,-9.67a32.26,32.26 0 0 1 6.92,-4.57a28.29,28.29 0 0 1 7.49,-2.25l0,-10.51l21.82,0l0,10.07a91.3,91.3 0 0 1 9.93,1.43l1.84,0.32c1.53,0.27 3.05,0.56 4.56,0.88s2.78,0.59 4.08,0.9l1.48,0.36l0,23.68l-2.1,-0.18c-2.08,-0.18 -4.19,-0.34 -6.31,-0.47c-2.31,-0.15 -4.67,-0.27 -7.08,-0.38s-4.9,-0.19 -7.09,-0.24c-2,0 -4.17,-0.07 -6.44,-0.07c-1.19,0 -2.29,0 -3.29,0.12a26.91,26.91 0 0 0 -2.88,0.36a8.23,8.23 0 0 0 -2,0.63a4.82,4.82 0 0 0 -1.34,0.92a3,3 0 0 0 -0.71,1.18a6.19,6.19 0 0 0 -0.29,2l0,1.3a5.49,5.49 0 0 0 0.36,2.12a3.47,3.47 0 0 0 1,1.33a4.92,4.92 0 0 0 1.91,0.9a13.07,13.07 0 0 0 3.25,0.35l8.6,0a39.54,39.54 0 0 1 8.77,0.92a26.84,26.84 0 0 1 7.35,2.79a24.48,24.48 0 0 1 9.88,10.18a28.62,28.62 0 0 1 2.46,6.79a34.51,34.51 0 0 1 0.82,7.57l0,4.3a51.37,51.37 0 0 1 -1.18,11.32a26.08,26.08 0 0 1 -3.49,8.62a22.65,22.65 0 0 1 -5.7,6a24.53,24.53 0 0 1 -7.62,3.63l-0.73,0.2a43,43 0 0 1 -8,1.74l0,11.35l-21.85,0l0,-11.29z"/>
  <g transform="rotate(179.657 112.571 64.5673)" fill-opacity="0.5" fill="white">
   <g stroke="null">
    <polygon stroke="#ff7f00" fill="#ff7f00" points="112.57855892181396,106.56088829040527 144.9574499130249,74.37286949157715 144.9574499130249,43.99677085876465 123.38161373138428,65.43560600280762 123.38161373138428,22.573633193969727 101.76108455657959,22.573633193969727 101.76108455657959,65.43560600280762 80.18524837493896,43.99677085876465 80.18524837493896,74.37286949157715 112.57855892181396,106.56088829040527 " clip-rule="evenodd" fill-rule="evenodd"/>
   </g>
  </g>
 </g>
</svg>